<?xml version="1.0" encoding="utf-8"?><!-- Generator: Adobe Illustrator 22.1.0, SVG Export Plug-In . SVG Version: 6.00 Build 0)  --><svg version="1.1" id="Layer_1" xmlns="http://www.w3.org/2000/svg" xmlns:xlink="http://www.w3.org/1999/xlink" x="0px" y="0px"	 viewBox="0 0 64 64" style="enable-background:new 0 0 64 64;" xml:space="preserve"><style type="text/css">	.st0{fill:url(#SVGID_1_);}	.st1{fill:url(#SVGID_2_);}	.st2{fill:url(#SVGID_3_);}	.st3{fill:url(#SVGID_4_);}	.st4{fill:url(#SVGID_5_);}	.st5{fill:url(#SVGID_6_);}	.st6{fill:url(#SVGID_7_);}	.st7{fill:url(#SVGID_8_);}	.st8{fill:url(#SVGID_9_);}</style><linearGradient id="SVGID_1_" gradientUnits="userSpaceOnUse" x1="32.5" y1="0.39" x2="32.5" y2="63.4217" gradientTransform="matrix(1 0 0 -1 0 63.89)">	<stop  offset="0" style="stop-color:#2F5989"/>	<stop  offset="1" style="stop-color:#54C162"/></linearGradient><path class="st0" d="M48.2,43l-6.6-2.5c-1.1-0.4-2.3-0.1-3.2,0.7l-9.5,9.5l-16.5-8.9c-1.5-0.8-3.3-0.2-4.1,1.2	C8.1,43.4,8,43.9,8,44.4v1.5c0,1.1,0.6,2.1,1.5,2.6l22.4,13c0.7,0.4,1.6,0.5,2.5,0.2L48.2,57H57V43H48.2z M33.7,59.8	c-0.3,0.1-0.6,0.1-0.8-0.1l-22.4-13c-0.3-0.2-0.5-0.5-0.5-0.9v-1.5c0-0.4,0.2-0.7,0.5-0.9c0.2-0.1,0.3-0.1,0.5-0.1	c0.2,0,0.3,0,0.5,0.1l21.6,11.7l7.5-5.4l-1.2-1.6l-6.5,4.6l-2.2-1.2l9-9c0.3-0.3,0.7-0.4,1.1-0.2l6.1,2.3v10.6L33.7,59.8z M55,55h-6	V45h6V55z"/><linearGradient id="SVGID_2_" gradientUnits="userSpaceOnUse" x1="52" y1="0.39" x2="52" y2="63.4217" gradientTransform="matrix(1 0 0 -1 0 63.89)">	<stop  offset="0" style="stop-color:#2F5989"/>	<stop  offset="1" style="stop-color:#54C162"/></linearGradient><rect x="51" y="47" class="st1" width="2" height="4"/><linearGradient id="SVGID_3_" gradientUnits="userSpaceOnUse" x1="24" y1="0.39" x2="24" y2="63.4217" gradientTransform="matrix(1 0 0 -1 0 63.89)">	<stop  offset="0" style="stop-color:#2F5989"/>	<stop  offset="1" style="stop-color:#54C162"/></linearGradient><path class="st2" d="M23,38v1h2v-1c1.1,0,2-0.9,2-2v-3c0-1.1-0.9-2-2-2h-2v-3h2v2h2v-2c0-1.1-0.9-2-2-2v-1h-2v1c-1.1,0-2,0.9-2,2v3	c0,1.1,0.9,2,2,2h2v3h-2v-2h-2v2C21,37.1,21.9,38,23,38z"/><linearGradient id="SVGID_4_" gradientUnits="userSpaceOnUse" x1="23.9991" y1="0.39" x2="23.9991" y2="63.4217" gradientTransform="matrix(1 0 0 -1 0 63.89)">	<stop  offset="0" style="stop-color:#2F5989"/>	<stop  offset="1" style="stop-color:#54C162"/></linearGradient><path class="st3" d="M23.5,43h1C30.3,43,35,38.3,35,32.5c0-1.8-0.5-3.6-1.4-5.2l-6.4-11.2l3.8-4.7V8H17v3.4l3.8,4.7l-6.4,11.2	c-2.9,5-1.1,11.4,3.9,14.3C19.9,42.5,21.7,43,23.5,43z M19,10.6V10h10v0.6L25.5,15h-3L19,10.6z M16.1,28.3L22.6,17H23v5h2v-5h0.4	l6.5,11.3c2.3,4.1,0.9,9.2-3.2,11.6C27.4,40.6,26,41,24.5,41h-1c-4.7,0-8.5-3.8-8.5-8.5C15,31,15.4,29.6,16.1,28.3z"/><linearGradient id="SVGID_5_" gradientUnits="userSpaceOnUse" x1="39" y1="0.39" x2="39" y2="63.4217" gradientTransform="matrix(1 0 0 -1 0 63.89)">	<stop  offset="0" style="stop-color:#2F5989"/>	<stop  offset="1" style="stop-color:#54C162"/></linearGradient><path class="st4" d="M33.2,23.4l1.7,1.1l1.7-2.6H37v6h2v-4.6l4.3,8.4c0.5,0.9,0.7,1.9,0.7,3v0.7c0,1.1-0.3,2.1-0.7,3l1.8,0.9	c0.6-1.2,1-2.6,1-4v-0.7c0-1.3-0.3-2.7-0.9-3.9l-5-9.8l3-3.7V15H32v2.3l2.8,3.7L33.2,23.4z M34.2,17h6.5l-2.4,3h-1.9L34.2,17z"/><linearGradient id="SVGID_6_" gradientUnits="userSpaceOnUse" x1="40" y1="0.39" x2="40" y2="63.4217" gradientTransform="matrix(1 0 0 -1 0 63.89)">	<stop  offset="0" style="stop-color:#2F5989"/>	<stop  offset="1" style="stop-color:#54C162"/></linearGradient><rect x="39" y="36" class="st5" width="2" height="2"/><linearGradient id="SVGID_7_" gradientUnits="userSpaceOnUse" x1="38" y1="0.39" x2="38" y2="63.4217" gradientTransform="matrix(1 0 0 -1 0 63.89)">	<stop  offset="0" style="stop-color:#2F5989"/>	<stop  offset="1" style="stop-color:#54C162"/></linearGradient><rect x="37" y="32" class="st6" width="2" height="2"/><linearGradient id="SVGID_8_" gradientUnits="userSpaceOnUse" x1="38.1465" y1="0.39" x2="38.1465" y2="63.4217" gradientTransform="matrix(1 0 0 -1 0 63.89)">	<stop  offset="0" style="stop-color:#2F5989"/>	<stop  offset="1" style="stop-color:#54C162"/></linearGradient><polygon class="st7" points="34.7,11.7 41,5.4 41,9 43,9 43,2 36,2 36,4 39.6,4 33.3,10.3 "/><linearGradient id="SVGID_9_" gradientUnits="userSpaceOnUse" x1="8" y1="0.39" x2="8" y2="63.4217" gradientTransform="matrix(1 0 0 -1 -7.333359e-06 63.89)">	<stop  offset="0" style="stop-color:#2F5989"/>	<stop  offset="1" style="stop-color:#54C162"/></linearGradient><polygon class="st8" points="5.3,38.3 9.3,34.3 10.7,35.7 6.7,39.7 "/></svg>