<?xml version="1.0" encoding="UTF-8" standalone="no"?> <svg id="Layer_1" data-name="Layer 1" xmlns="http://www.w3.org/2000/svg" viewBox="0 0 128 128"><defs><style>.cls-1{fill:#2e78bc;}.cls-2{fill:#3c4652;}</style></defs><path class="cls-1" d="M54.35934,3.2242A19.50763,19.50763,0,1,0,73.867,22.73183,19.52555,19.52555,0,0,0,54.35934,3.2242ZM54.2321,38.49276a2.105,2.105,0,0,1-2.09563-2.11683v-.55039l-.28579-.08463a8.49464,8.49464,0,0,1-2.05332-.96319,8.11776,8.11776,0,0,1-2.76244-3.04823c-.58211-1.12191-1.0161-2.29673-.2646-3.30223a2.0876,2.0876,0,0,1,1.71462-.86791,2.15827,2.15827,0,0,1,2.02154,1.503A3.87549,3.87549,0,0,0,57.058,30.62877a3.8312,3.8312,0,0,0-.6668-5.853,6.35034,6.35034,0,0,0-2.88944-.815,7.77664,7.77664,0,0,1-2.04273-.42339,7.35312,7.35312,0,0,1-1.577-12.75384,8.02283,8.02283,0,0,1,1.97922-1.03722l.2752-.08469V9.07953a2.10626,2.10626,0,1,1,4.21246,0v.59271l.27519.09522A7.16311,7.16311,0,0,1,58.741,10.9a7.28563,7.28563,0,0,1,2.46611,3.42924l.01053.02119a3.61787,3.61787,0,0,0,.04238.48689,1.72683,1.72683,0,0,1-.0106.77262,2.15638,2.15638,0,0,1-1.577,1.47121,2.10291,2.10291,0,0,1-2.46611-1.33361,3.22044,3.22044,0,0,0-.4763-.93141,3.149,3.149,0,0,0-2.49784-1.2172,3.15536,3.15536,0,0,0-3.11173,3.41872A3.18916,3.18916,0,0,0,53.904,19.80124a8.84176,8.84176,0,0,1,4.50884,1.20654A8.35765,8.35765,0,0,1,61.768,24.93451a7.89621,7.89621,0,0,1,.58211,3.04823,8.09444,8.09444,0,0,1-.81493,3.53512,7.9858,7.9858,0,0,1-2.699,3.14345,8.18761,8.18761,0,0,1-2.20145,1.0796l-.28579.08463v.55039A2.10954,2.10954,0,0,1,54.2321,38.49276Z"/><path class="cls-2" d="M94.37925,54.04575,73.70067,38.32628a24.81272,24.81272,0,0,1-38.67853-.00311L14.33949,54.04575a3.32027,3.32027,0,0,0,2.001,5.9618H92.37a3.32028,3.32028,0,0,0,2.00923-5.9618Z"/><path class="cls-2" d="M85.3709,103.74035H83.29425a131.30551,131.30551,0,0,0,.52428-32.8752H85.3709a2.36457,2.36457,0,1,0,0-4.72913H73.16664a2.36457,2.36457,0,0,0,0,4.72913H74.719a131.305,131.305,0,0,0,.52428,32.8752H73.16664a2.36455,2.36455,0,0,0-2.36455,2.36456v0a2.36455,2.36455,0,0,0,2.36455,2.36456H85.3709a2.36458,2.36458,0,0,0,2.36458-2.36456v0A2.36458,2.36458,0,0,0,85.3709,103.74035Z"/><path class="cls-2" d="M35.55345,103.74035H33.47681a131.30551,131.30551,0,0,0,.52428-32.8752h1.55236a2.36457,2.36457,0,1,0,0-4.72913H23.3492a2.36457,2.36457,0,0,0,0,4.72913h1.55237a131.305,131.305,0,0,0,.52428,32.8752H23.3492a2.36455,2.36455,0,0,0-2.36455,2.36456v0a2.36455,2.36455,0,0,0,2.36455,2.36456H35.55345a2.36459,2.36459,0,0,0,2.36459-2.36456v0A2.36459,2.36459,0,0,0,35.55345,103.74035Z"/><path class="cls-2" d="M60.46217,103.74035H58.38553a131.30551,131.30551,0,0,0,.52428-32.8752h1.55236a2.36457,2.36457,0,1,0,0-4.72913H48.25792a2.36457,2.36457,0,0,0,0,4.72913h1.55237a131.305,131.305,0,0,0,.52428,32.8752H48.25792a2.36455,2.36455,0,0,0-2.36455,2.36456v0a2.36455,2.36455,0,0,0,2.36455,2.36456H60.46217a2.36459,2.36459,0,0,0,2.36459-2.36456v0A2.36459,2.36459,0,0,0,60.46217,103.74035Z"/><path class="cls-1" d="M90.3082,118.806v-3.40924a2.1532,2.1532,0,0,0-2.15319-2.15319H20.56512a2.15319,2.15319,0,0,0-2.15319,2.15319V118.806h-3.3868a2.15319,2.15319,0,0,0-2.15319,2.15318v2.33261a2.15319,2.15319,0,0,0,2.15319,2.15319H93.695a2.15318,2.15318,0,0,0,2.15318-2.15319v-2.33261A2.15318,2.15318,0,0,0,93.695,118.806Z"/><path class="cls-1" d="M107.63272,34.37969V5.69455a2.47036,2.47036,0,0,0-2.47036-2.47037h-10.43A2.47037,2.47037,0,0,0,92.262,5.69455V34.37974H84.15663a1.64691,1.64691,0,0,0-.99666,2.958l15.29239,11.625a2.47036,2.47036,0,0,0,2.99,0l15.29242-11.625a1.64691,1.64691,0,0,0-.99667-2.958Z"/></svg>