<?xml version="1.0" encoding="UTF-8" standalone="no"?> <svg id="Layer_1" data-name="Layer 1" xmlns="http://www.w3.org/2000/svg" viewBox="0 0 128 128"><defs><style>.cls-1{fill:#1d75b8;}.cls-2{fill:#2d3e50;}</style></defs><title>v</title><path class="cls-1" d="M33.51217,79.14193l0,.0001a3.06787,3.06787,0,0,0,2.90848-.0001A91.54815,91.54815,0,0,0,59.671,61.28a23.666,23.666,0,0,0,6.46972-16.333V10.342L34.96648,3.49946,3.77348,10.342V44.947A23.66608,23.66608,0,0,0,10.24325,61.28,91.316,91.316,0,0,0,33.51217,79.14193Z"/><circle class="cls-1" cx="79.37483" cy="71.7047" r="10.55923"/><path class="cls-1" d="M94.1093,82.26759a10.55342,10.55342,0,0,0,7.92056-17.539v-.008a10.54634,10.54634,0,0,0-11.89167-2.7917,14.47493,14.47493,0,0,1-.00459,19.55678A10.48,10.48,0,0,0,94.1093,82.26759Z"/><path class="cls-1" d="M26.07494,102.13584a2.96684,2.96684,0,1,0,0,5.93369H37.94251a2.96684,2.96684,0,1,0,0-5.93369Z"/><path class="cls-1" d="M57.95662,102.13584a2.96684,2.96684,0,1,0,0,5.93369H69.82415a2.96684,2.96684,0,1,0,0-5.93369Z"/><path class="cls-1" d="M86.87146,105.10263a2.968,2.968,0,0,0,2.96689,2.96689h11.86747a2.96684,2.96684,0,1,0,0-5.93369H89.83835A2.96787,2.96787,0,0,0,86.87146,105.10263Z"/><path class="cls-2" d="M112.97431,44.66192H72.146v.2882a29.73577,29.73577,0,0,1-.881,7.22386h41.70929a3.74609,3.74609,0,0,1,3.74806,3.7401v57.33422a3.75279,3.75279,0,0,1-3.74806,3.748H15.028a3.75279,3.75279,0,0,1-3.74806-3.748V70.71413c-1.858-1.69784-3.668-3.46773-5.40587-5.30977a26.77163,26.77163,0,0,1-2.09827-2.49069v50.33463A11.2621,11.2621,0,0,0,15.028,124.50054h97.94632a11.2621,11.2621,0,0,0,11.25221-11.25225V55.91407A11.262,11.262,0,0,0,112.97431,44.66192Z"/></svg>